<svg width="50" height="50" viewBox="0 0 50 50" fill="none" xmlns="http://www.w3.org/2000/svg">
<path fill-rule="evenodd" clip-rule="evenodd" d="M25 44C34.9411 44 43 35.9411 43 26C43 16.0589 34.9411 8 25 8C15.0589 8 7 16.0589 7 26C7 35.9411 15.0589 44 25 44ZM25 48C37.1503 48 47 38.1503 47 26C47 13.8497 37.1503 4 25 4C12.8497 4 3 13.8497 3 26C3 38.1503 12.8497 48 25 48Z" fill="#dce7eb"/>
<circle cx="36" cy="27" r="3" fill="#dce7eb"/>
<circle cx="14" cy="27" r="3" fill="#dce7eb"/>
<path fill-rule="evenodd" clip-rule="evenodd" d="M24.0245 30L28.5 30C29.3284 30 30 30.6716 30 31.5V31.5C30 32.3284 29.3284 33 28.5 33L22.6748 33C21.3318 33 20.3704 31.7025 20.7615 30.4177L23.6282 20.9983C23.8695 20.2057 24.7075 19.7588 25.5 20V20C26.2925 20.2412 26.7395 21.0792 26.4983 21.8718L24.0245 30Z" fill="#dce7eb"/>
<!-- <path d="M30 35C30 35.5523 29.5523 36 29 36H21C20.4477 36 20 35.5523 20 35C20 34.4477 20.4477 34 21 34H29C29.5523 34 30 34.4477 30 35Z" fill="#dce7eb"/> -->
</svg>
